{"asset":{"version":"2.0","generator":"Blockbench 4.11.2 glTF exporter"},"scenes":[{"nodes":[1],"name":"blockbench_export"}],"scene":0,"nodes":[{"translation":[0,0.15625,0],"name":"log","mesh":0},{"children":[0]}],"bufferViews":[{"buffer":0,"byteOffset":0,"byteLength":4320,"target":34962,"byteStride":12},{"buffer":0,"byteOffset":4320,"byteLength":4320,"target":34962,"byteStride":12},{"buffer":0,"byteOffset":8640,"byteLength":2880,"target":34962,"byteStride":8},{"buffer":0,"byteOffset":11520,"byteLength":144,"target":34963},{"buffer":0,"byteOffset":11664,"byteLength":576,"target":34963}],"buffers":[{"byteLength":12240,"uri":"data:application/octet-stream;base64,"}],"accessors":[{"bufferView":0,"componentType":5126,"count":360,"max":[0.11707596480846405,0.3515625,0.1171875],"min":[-0.11707596480846405,-0.15625,-0.1171875],"type":"VEC3"},{"bufferView":1,"componentType":5126,"count":360,"max":[1,1,0.9991330504417419],"min":[-1,-1,-0.9991330504417419],"type":"VEC3"},{"bufferView":2,"componentType":5126,"count":360,"max":[0.34375,0.7506499886512756],"min":[0,0],"type":"VEC2"},{"bufferView":3,"componentType":5123,"count":72,"max":[71],"min":[0],"type":"SCALAR"},{"bufferView":4,"componentType":5123,"count":288,"max":[359],"min":[72],"type":"SCALAR"}],"materials":[{"pbrMetallicRoughness":{"metallicFactor":0,"roughnessFactor":1,"baseColorTexture":{"index":0}},"alphaMode":"MASK","alphaCutoff":0.05,"doubleSided":true},{"pbrMetallicRoughness":{"metallicFactor":0,"roughnessFactor":1,"baseColorTexture":{"index":1}},"alphaMode":"MASK","alphaCutoff":0.05,"doubleSided":true}],"textures":[{"sampler":0,"source":0,"name":"log-sample"},{"sampler":1,"source":1,"name":"grass_2.png"}],"samplers":[{"magFilter":9728,"minFilter":9728,"wrapS":33071,"wrapT":33071},{"magFilter":9728,"minFilter":9728,"wrapS":33071,"wrapT":33071}],"images":[{"mimeType":"image/png","uri":"data:image/png;base64,"},{"mimeType":"image/png","uri":"data:image/png;base64,"}],"meshes":[{"primitives":[{"mode":4,"attributes":{"POSITION":0,"NORMAL":1,"TEXCOORD_0":2},"indices":3,"material":0},{"mode":4,"attributes":{"POSITION":0,"NORMAL":1,"TEXCOORD_0":2},"indices":4,"material":1}]}]}